# xmcd CD database file
#
# Track frame offsets:
#	150
#	20075
#	42341
#
# Disc length: 904 seconds
#
# Revision: 1
# Processed by: cddbd v1.5.2PL0 Copyright (c) Steve Scherf et al.
# Submitted via: CDex 1.51
#
DISCID=20038603
DTITLE=Lana Lane - Acoustic Live In Tokyo - 29 October 1998 -
DYEAR=1999
DGENRE=Symphonic Rock
TTITLE0=Take A Breath
TTITLE1=Stardust
TTITLE2=Symphony Of Angels
EXTD=YEAR: 1999
EXTT0=
EXTT1=
EXTT2=
PLAYORDER=
